name analog
datacolumns 19
datarows 51
range 0.0 0.025
endheader
time	ground_force_vx	ground_force_vy	ground_force_vz	ground_force_px	ground_force_py	ground_force_pz	l_ground_force_vx	l_ground_force_vy	l_ground_force_vz	l_ground_force_px	l_ground_force_py	l_ground_force_pz	ground_torque_x	ground_torque_y	ground_torque_z	l_ground_torque_x	l_ground_torque_y	l_ground_torque_z
0.0	-0.0	-0.0	-0.0	2.6763153076171875	57.221717834472656	-389.5574951171875	2.8102948665618896	-62.01039505004883	-422.3379211425781	-0.0	-0.0	-0.0	-0.0	-0.0	-0.0	112683.203125	-36205.66796875	3575.596923828125
0.0005	-0.0	-0.0	-0.0	2.7479825019836426	57.16764831542969	-389.59222412109375	3.4965620040893555	-61.71104049682617	-421.6730651855469	-0.0	-0.0	-0.0	-0.0	-0.0	-0.0	113228.28125	-36196.20703125	3629.707275390625
0.001	-0.0	-0.0	-0.0	3.1047515869140625	57.560638427734375	-388.9557495117188	3.236993789672852	-61.68310928344727	-422.4051208496094	-0.0	-0.0	-0.0	-0.0	-0.0	-0.0	112645.9921875	-36182.0078125	3560.833984375
0.0015	-0.0	-0.0	-0.0	3.2389779090881348	57.176700592041016	-389.9456176757813	3.0335726737976074	-61.91350555419922	-420.8304748535156	-0.0	-0.0	-0.0	-0.0	-0.0	-0.0	112723.6484375	-36467.3828125	3715.36962890625
0.002	-0.0	-0.0	-0.0	2.828136682510376	57.78307723999024	-390.1585388183594	3.0336451530456543	-62.36381149291992	-421.4948120117188	-0.0	-0.0	-0.0	-0.0	-0.0	-0.0	112610.515625	-36531.01953125	3652.968994140625
0.0025	-0.0	-0.0	-0.0	2.970655918121338	57.72092056274414	-389.5574951171875	2.8923540115356445	-62.4172248840332	-422.5079956054688	-0.0	-0.0	-0.0	-0.0	-0.0	-0.0	112673.6640625	-36369.7421875	3634.8798828125
0.003	-0.0	-0.0	-0.0	2.9706506729125977	58.01497268676758	-389.5574951171875	3.167182683944702	-62.028114318847656	-421.0768432617188	-0.0	-0.0	-0.0	-0.0	-0.0	-0.0	112974.65625	-36203.44140625	3629.28759765625
0.0035	-0.0	-0.0	-0.0	2.6763153076171875	57.50702667236328	-386.6982727050781	2.980818748474121	-62.5053596496582	-420.8668518066406	-0.0	-0.0	-0.0	-0.0	-0.0	-0.0	112789.6328125	-36388.3671875	3551.83837890625
0.004	-0.0	-0.0	-0.0	2.667314052581787	57.60522079467773	-387.049560546875	2.679069995880127	-62.24028778076172	-421.3212585449219	-0.0	-0.0	-0.0	-0.0	-0.0	-0.0	112795.0078125	-36404.96484375	3605.109130859375
0.0045000000000000005	-0.0	-0.0	-0.0	2.729374885559082	57.68543243408203	-385.5651550292969	2.2003345489501958	-62.628562927246094	-421.5312194824219	-0.0	-0.0	-0.0	-0.0	-0.0	-0.0	112968.515625	-36379.12109375	3589.77392578125
0.005	-0.0	-0.0	-0.0	2.3814940452575684	57.034400939941406	-382.9546813964844	2.226704359054565	-62.11683654785156	-422.1243286132813	-0.0	-0.0	-0.0	-0.0	-0.0	-0.0	113052.765625	-36511.0625	3628.50732421875
0.0055	-0.0	-0.0	-0.0	2.0791406631469727	57.132591247558594	-381.0091247558594	2.155972003936768	-62.78779220581055	-423.4150085449219	-0.0	-0.0	-0.0	-0.0	-0.0	-0.0	113097.4375	-36567.49609375	3607.597900390625
0.006	-0.0	-0.0	-0.0	1.7224079370498655	56.69606399536133	-378.60888671875	1.703519344329834	-62.620079040527344	-422.9289855957031	-0.0	-0.0	-0.0	-0.0	-0.0	-0.0	113021.8046875	-36516.86328125	3479.638916015625
0.006500000000000001	-0.0	-0.0	-0.0	1.7408069372177124	56.05387115478516	-378.5000915527344	1.969702243804932	-62.78772735595703	-422.8581848144531	-0.0	-0.0	-0.0	-0.0	-0.0	-0.0	113176.5078125	-36815.6953125	3453.125
0.007	-0.0	-0.0	-0.0	1.9442354440689087	56.12458419799805	-380.1927490234375	1.8810639381408687	-62.41831207275391	-424.18353271484375	-0.0	-0.0	-0.0	-0.0	-0.0	-0.0	113361.8671875	-36454.58984375	3456.17626953125
0.0075	-0.0	-0.0	-0.0	1.5965548753738403	55.38688659667969	-376.69677734375	2.013033151626587	-62.57707977294922	-424.6041870117188	-0.0	-0.0	-0.0	-0.0	-0.0	-0.0	113305.015625	-36585.94921875	3352.796630859375
0.008	-0.0	-0.0	-0.0	1.7042595148086548	55.71575546264648	-375.540283203125	1.7128958702087402	-62.94609451293945	-425.0510559082031	-0.0	-0.0	-0.0	-0.0	-0.0	-0.0	113681.1328125	-36644.2890625	3382.196044921875
0.0085	-0.0	-0.0	-0.0	1.713592290878296	54.974884033203125	-377.7921142578125	1.199073076248169	-63.22007369995117	-426.00103759765625	-0.0	-0.0	-0.0	-0.0	-0.0	-0.0	113605.765625	-36672.55859375	3355.22265625
0.009000000000000001	-0.0	-0.0	-0.0	2.094388484954834	54.99346160888672	-375.951904296875	1.1808485984802246	-62.842533111572266	-425.7838745117188	-0.0	-0.0	-0.0	-0.0	-0.0	-0.0	113755.4765625	-36790.05859375	3357.34619140625
0.0095	-0.0	-0.0	-0.0	1.4978692531585691	54.80083847045898	-376.3786926269531	1.321437120437622	-63.04331588745117	-425.0264587402344	-0.0	-0.0	-0.0	-0.0	-0.0	-0.0	113766.015625	-36571.71875	3274.550537109375
0.01	-0.0	-0.0	-0.0	1.2489471435546875	54.5290412902832	-373.348388671875	1.2512118816375732	-62.99180603027344	-425.6887512207031	-0.0	-0.0	-0.0	-0.0	-0.0	-0.0	113617.796875	-36495.48828125	3260.3212890625
0.0105	-0.0	-0.0	-0.0	0.685401439666748	54.57606506347656	-374.4826965332031	1.0316011905670166	-62.80597686767578	-424.9541320800781	-0.0	-0.0	-0.0	-0.0	-0.0	-0.0	113898.65625	-36878.53125	3339.92626953125
0.011	-0.0	-0.0	-0.0	0.0	54.57614135742188	-373.5732116699219	1.1252697706222534	-63.09881591796875	-426.7733459472656	-0.0	-0.0	-0.0	-0.0	-0.0	-0.0	113989.125	-36931.03515625	3339.927490234375
0.0115	-0.0	-0.0	-0.0	-0.8446581959724426	54.28989791870117	-374.6863708496094	1.153240203857422	-63.21037673950195	-425.9649658203125	-0.0	-0.0	-0.0	-0.0	-0.0	-0.0	114039.890625	-36954.19140625	3422.663818359375
0.012	-0.0	-0.0	-0.0	-1.6568963527679443	54.181766510009766	-375.0016479492188	1.0040030479431152	-63.23832702636719	-426.70025634765625	-0.0	-0.0	-0.0	-0.0	-0.0	-0.0	113871.859375	-37054.00390625	3336.68798828125
0.0125	-0.0	-0.0	-0.0	-2.5074565410614014	54.00347137451172	-373.6643676757813	0.9758186340332032	-63.45252990722656	-427.7478637695313	-0.0	-0.0	-0.0	-0.0	-0.0	-0.0	114311.546875	-36951.27734375	3330.306396484375
0.013000000000000001	-0.0	-0.0	-0.0	-3.766016960144043	54.35038757324219	-375.07708740234375	1.0834423303604126	-63.41497039794922	-428.60931396484375	-0.0	-0.0	-0.0	-0.0	-0.0	-0.0	114133.109375	-36926.50390625	3277.371337890625
0.0135	-0.0	-0.0	-0.0	-4.2628560066223145	53.755252838134766	-375.03900146484375	0.8363677263259888	-63.17835998535156	-428.7581787109375	-0.0	-0.0	-0.0	-0.0	-0.0	-0.0	114421.984375	-37270.4140625	3204.13525390625
0.014	-0.0	-0.0	-0.0	-5.222513198852539	54.06354904174805	-377.6730651855469	0.7287440896034241	-63.257301330566406	-428.4956665039063	-0.0	-0.0	-0.0	-0.0	-0.0	-0.0	114374.25	-37236.859375	3319.56884765625
0.0145	-0.0	-0.0	-0.0	-5.620262145996094	53.6855354309082	-377.5493774414063	1.143686056137085	-63.45301818847656	-427.4743957519531	-0.0	-0.0	-0.0	-0.0	-0.0	-0.0	114200.4921875	-37330.4765625	3238.15625
0.015	-0.0	-0.0	-0.0	-5.977104187011719	54.02273941040039	-379.7906494140625	0.4723251163959503	-63.374393463134766	-427.984375	-0.0	-0.0	-0.0	-0.0	-0.0	-0.0	114314.296875	-37004.2109375	3250.490234375
0.0155	-0.0	-0.0	-0.0	-5.936688423156738	54.52830505371094	-381.5115966796875	1.0067696571350098	-63.54369354248047	-426.7390441894531	-0.0	-0.0	-0.0	-0.0	-0.0	-0.0	113976.7890625	-37053.5390625	3280.503173828125
0.016	-0.0	-0.0	-0.0	-6.046745777130127	54.48800659179688	-381.550537109375	1.016269326210022	-63.55134582519531	-427.0504455566406	-0.0	-0.0	-0.0	-0.0	-0.0	-0.0	114485.515625	-37233.74609375	3274.061767578125
0.0165	-0.0	-0.0	-0.0	-5.630083084106445	54.76531600952149	-384.771728515625	0.5710177421569824	-63.75861358642578	-426.2760009765625	-0.0	-0.0	-0.0	-0.0	-0.0	-0.0	114018.59375	-37239.48046875	3178.208740234375
0.017	-0.0	-0.0	-0.0	-5.848464012145996	54.904327392578125	-386.92718505859375	0.5808871984481812	-63.83721923828125	-426.428955078125	-0.0	-0.0	-0.0	-0.0	-0.0	-0.0	114199.40625	-37167.09375	3141.59375
0.0175	-0.0	-0.0	-0.0	-4.767673969268799	55.44898223876953	-388.4588317871094	0.4435539245605469	-63.56250381469727	-425.6925659179688	-0.0	-0.0	-0.0	-0.0	-0.0	-0.0	113654.7890625	-36987.62109375	3184.6279296875
0.018000000000000002	-0.0	-0.0	-0.0	-4.559621334075928	55.71641159057617	-388.4195556640625	0.49313485622406	-63.748779296875	-425.8879699707031	-0.0	-0.0	-0.0	-0.0	-0.0	-0.0	113555.71875	-36881.3359375	3069.21875
0.0185	-0.0	-0.0	-0.0	-4.371315002441406	55.74591445922852	-391.7159729003906	0.1676028668880462	-63.5032958984375	-424.1019287109375	-0.0	-0.0	-0.0	-0.0	-0.0	-0.0	113284.1328125	-36835.25	3098.713623046875
0.019	-0.0	-0.0	-0.0	-3.3307251930236816	56.86460113525391	-393.3634338378906	0.2464418858289718	-63.5426025390625	-423.0163879394531	-0.0	-0.0	-0.0	-0.0	-0.0	-0.0	113468.984375	-36850.5703125	2973.51904296875
0.0195	-0.0	-0.0	-0.0	-2.6371748447418213	56.23219299316406	-396.0299987792969	-0.0491897463798522	-63.169681549072266	-423.5987243652344	-0.0	-0.0	-0.0	-0.0	-0.0	-0.0	113192.0625	-36627.71484375	2890.995849609375
0.02	-0.0	-0.0	-0.0	-2.467742919921875	57.300811767578125	-395.7206726074219	-0.0589613169431686	-63.12038803100586	-423.2107849121094	-0.0	-0.0	-0.0	-0.0	-0.0	-0.0	112858.9921875	-36512.109375	2983.12939453125
0.0205	-0.0	-0.0	-0.0	-1.349816083908081	56.72724533081055	-397.4073181152344	0.07875806838274	-63.20859909057617	-422.3167724609375	-0.0	-0.0	-0.0	-0.0	-0.0	-0.0	112533.1875	-36427.0625	2742.756591796875
0.021	-0.0	-0.0	-0.0	-0.9105296730995178	57.11418151855469	-397.5605163574219	-0.3249092102050781	-62.82652282714844	-420.5356140136719	-0.0	-0.0	-0.0	-0.0	-0.0	-0.0	112356.5	-36591.65234375	2633.920166015625
0.021500000000000002	-0.0	-0.0	-0.0	0.4156064093112945	57.09415435791016	-399.7510986328125	-0.5122362971305847	-62.620079040527344	-419.6802368164063	-0.0	-0.0	-0.0	-0.0	-0.0	-0.0	111963.21875	-36382.57421875	2758.75537109375
0.022	-0.0	-0.0	-0.0	1.1393663883209229	57.79720306396485	-399.3658752441406	-0.4536043405532837	-62.23850631713867	-417.7040100097656	-0.0	-0.0	-0.0	-0.0	-0.0	-0.0	111691.6015625	-35960.54296875	2475.648193359375
0.0225	-0.0	-0.0	-0.0	1.753578543663025	57.9728889465332	-400.5464782714844	-0.3064351379871368	-61.963661193847656	-417.5456848144531	-0.0	-0.0	-0.0	-0.0	-0.0	-0.0	111155.6953125	-35939.31640625	2568.183837890625
0.023	-0.0	-0.0	-0.0	2.2989792823791504	57.73602294921875	-401.1718444824219	-0.6108635663986206	-61.971622467041016	-417.1964111328125	-0.0	-0.0	-0.0	-0.0	-0.0	-0.0	111140.921875	-36026.2421875	2272.105224609375
0.0235	-0.0	-0.0	-0.0	2.902813196182251	57.86284255981445	-401.0220947265625	-0.3954357802867889	-61.30535507202149	-413.864501953125	-0.0	-0.0	-0.0	-0.0	-0.0	-0.0	110654.7109375	-35963.5625	2364.057373046875
0.024	-0.0	-0.0	-0.0	3.47563910484314	58.233055114746094	-401.5656127929688	-0.5322647094726562	-61.06067657470703	-411.8900451660156	-0.0	-0.0	-0.0	-0.0	-0.0	-0.0	110279.4609375	-35416.546875	2317.365234375
0.0245	-0.0	-0.0	-0.0	3.153404235839844	58.47598648071289	-402.31292724609375	-0.8462684750556946	-60.98262405395508	-413.2749633789063	-0.0	-0.0	-0.0	-0.0	-0.0	-0.0	110057.6328125	-35652.87890625	2287.461181640625
0.025	-0.0	-0.0	-0.0	3.3630802631378174	58.63743209838867	-402.8961181640625	-0.6414676308631897	-60.75511932373047	-410.8039245605469	-0.0	-0.0	-0.0	-0.0	-0.0	-0.0	109690.4609375	-35255.10546875	1978.4549560546875
